<mxfile host="Electron" agent="Mozilla/5.0 (Macintosh; Intel Mac OS X 10_15_7) AppleWebKit/537.36 (KHTML, like Gecko) draw.io/24.7.17 Chrome/128.0.6613.36 Electron/32.0.1 Safari/537.36" version="24.7.17">
  <diagram name="Page-1" id="aXH7dpIs6Sqpf87ATUKA">
    <mxGraphModel dx="1194" dy="727" grid="1" gridSize="10" guides="1" tooltips="1" connect="1" arrows="1" fold="1" page="1" pageScale="1" pageWidth="1169" pageHeight="827" math="0" shadow="0">
      <root>
        <mxCell id="0" />
        <mxCell id="1" parent="0" />
        <mxCell id="HNm3cFTyr4UYgs1CFmEH-2" value="Государственная библиотека" style="swimlane;whiteSpace=wrap;html=1;" parent="1" vertex="1">
          <mxGeometry x="160" y="20" width="880" height="740" as="geometry" />
        </mxCell>
        <mxCell id="HNm3cFTyr4UYgs1CFmEH-8" value="Получить&lt;div&gt;читательский&lt;/div&gt;&lt;div&gt;билет&lt;/div&gt;" style="ellipse;whiteSpace=wrap;html=1;" parent="HNm3cFTyr4UYgs1CFmEH-2" vertex="1">
          <mxGeometry x="120" y="140" width="120" height="80" as="geometry" />
        </mxCell>
        <mxCell id="HNm3cFTyr4UYgs1CFmEH-9" value="Взять&lt;div&gt;книгу во временное пользование&lt;/div&gt;" style="ellipse;whiteSpace=wrap;html=1;" parent="HNm3cFTyr4UYgs1CFmEH-2" vertex="1">
          <mxGeometry x="120" y="345" width="120" height="80" as="geometry" />
        </mxCell>
        <mxCell id="HNm3cFTyr4UYgs1CFmEH-11" value="Вернуть&lt;div&gt;книгу&lt;/div&gt;" style="ellipse;whiteSpace=wrap;html=1;" parent="HNm3cFTyr4UYgs1CFmEH-2" vertex="1">
          <mxGeometry x="300" y="290" width="120" height="80" as="geometry" />
        </mxCell>
        <mxCell id="HNm3cFTyr4UYgs1CFmEH-13" value="Продлить&amp;nbsp;&lt;span style=&quot;background-color: initial;&quot;&gt;срок использования&lt;/span&gt;" style="ellipse;whiteSpace=wrap;html=1;" parent="HNm3cFTyr4UYgs1CFmEH-2" vertex="1">
          <mxGeometry x="300" y="405" width="120" height="80" as="geometry" />
        </mxCell>
        <mxCell id="HNm3cFTyr4UYgs1CFmEH-14" value="Получить консультацию" style="ellipse;whiteSpace=wrap;html=1;" parent="HNm3cFTyr4UYgs1CFmEH-2" vertex="1">
          <mxGeometry x="120" y="485" width="120" height="80" as="geometry" />
        </mxCell>
        <mxCell id="HNm3cFTyr4UYgs1CFmEH-24" value="Обратиться за выдачей билета к библиотекарю" style="ellipse;whiteSpace=wrap;html=1;" parent="HNm3cFTyr4UYgs1CFmEH-2" vertex="1">
          <mxGeometry x="300" y="180" width="120" height="80" as="geometry" />
        </mxCell>
        <mxCell id="HNm3cFTyr4UYgs1CFmEH-23" value="Заполнить&amp;nbsp;&lt;span style=&quot;background-color: initial;&quot;&gt;заявку на&amp;nbsp;&lt;/span&gt;&lt;span style=&quot;background-color: initial;&quot;&gt;регистрацию&lt;/span&gt;" style="ellipse;whiteSpace=wrap;html=1;" parent="HNm3cFTyr4UYgs1CFmEH-2" vertex="1">
          <mxGeometry x="300" y="60" width="120" height="80" as="geometry" />
        </mxCell>
        <mxCell id="HNm3cFTyr4UYgs1CFmEH-25" value="Посмотреть&lt;div&gt;каталог&lt;/div&gt;" style="ellipse;whiteSpace=wrap;html=1;" parent="HNm3cFTyr4UYgs1CFmEH-2" vertex="1">
          <mxGeometry x="120" y="615" width="120" height="80" as="geometry" />
        </mxCell>
        <mxCell id="HNm3cFTyr4UYgs1CFmEH-34" value="&amp;lt;include&amp;gt;" style="html=1;verticalAlign=bottom;endArrow=open;dashed=1;endSize=8;curved=0;rounded=0;entryX=0;entryY=0.5;entryDx=0;entryDy=0;exitX=1;exitY=0;exitDx=0;exitDy=0;" parent="HNm3cFTyr4UYgs1CFmEH-2" source="HNm3cFTyr4UYgs1CFmEH-8" target="HNm3cFTyr4UYgs1CFmEH-23" edge="1">
          <mxGeometry x="-0.0114" y="-17" relative="1" as="geometry">
            <mxPoint x="490" y="180" as="sourcePoint" />
            <mxPoint x="410" y="180" as="targetPoint" />
            <mxPoint y="-1" as="offset" />
          </mxGeometry>
        </mxCell>
        <mxCell id="HNm3cFTyr4UYgs1CFmEH-37" value="&amp;lt;include&amp;gt;" style="html=1;verticalAlign=bottom;endArrow=open;dashed=1;endSize=8;curved=0;rounded=0;entryX=0;entryY=0.5;entryDx=0;entryDy=0;exitX=1;exitY=0;exitDx=0;exitDy=0;" parent="HNm3cFTyr4UYgs1CFmEH-2" source="HNm3cFTyr4UYgs1CFmEH-9" target="HNm3cFTyr4UYgs1CFmEH-11" edge="1">
          <mxGeometry x="-0.2318" y="7" relative="1" as="geometry">
            <mxPoint x="350" y="320" as="sourcePoint" />
            <mxPoint x="270" y="320" as="targetPoint" />
            <mxPoint as="offset" />
          </mxGeometry>
        </mxCell>
        <mxCell id="HNm3cFTyr4UYgs1CFmEH-38" value="&amp;lt;extend&amp;gt;" style="html=1;verticalAlign=bottom;endArrow=open;dashed=1;endSize=8;curved=0;rounded=0;exitX=0;exitY=0.5;exitDx=0;exitDy=0;entryX=1;entryY=1;entryDx=0;entryDy=0;" parent="HNm3cFTyr4UYgs1CFmEH-2" source="HNm3cFTyr4UYgs1CFmEH-13" target="HNm3cFTyr4UYgs1CFmEH-9" edge="1">
          <mxGeometry x="0.0593" y="24" relative="1" as="geometry">
            <mxPoint x="350" y="320" as="sourcePoint" />
            <mxPoint x="270" y="320" as="targetPoint" />
            <mxPoint as="offset" />
          </mxGeometry>
        </mxCell>
        <mxCell id="HNm3cFTyr4UYgs1CFmEH-42" value="&amp;lt;include&amp;gt;" style="html=1;verticalAlign=bottom;endArrow=open;dashed=1;endSize=8;curved=0;rounded=0;entryX=0;entryY=0.5;entryDx=0;entryDy=0;exitX=1;exitY=1;exitDx=0;exitDy=0;" parent="HNm3cFTyr4UYgs1CFmEH-2" source="HNm3cFTyr4UYgs1CFmEH-8" target="HNm3cFTyr4UYgs1CFmEH-24" edge="1">
          <mxGeometry x="-0.2223" y="-17" relative="1" as="geometry">
            <mxPoint x="200" y="190" as="sourcePoint" />
            <mxPoint x="232" y="112" as="targetPoint" />
            <mxPoint as="offset" />
          </mxGeometry>
        </mxCell>
        <mxCell id="HNm3cFTyr4UYgs1CFmEH-43" value="Выдать&lt;div&gt;читательский&lt;/div&gt;&lt;div&gt;билет&lt;/div&gt;" style="ellipse;whiteSpace=wrap;html=1;" parent="HNm3cFTyr4UYgs1CFmEH-2" vertex="1">
          <mxGeometry x="680" y="100" width="120" height="80" as="geometry" />
        </mxCell>
        <mxCell id="HNm3cFTyr4UYgs1CFmEH-44" value="Выдать книгу&lt;div&gt;посетителю&lt;/div&gt;" style="ellipse;whiteSpace=wrap;html=1;" parent="HNm3cFTyr4UYgs1CFmEH-2" vertex="1">
          <mxGeometry x="570" y="200" width="120" height="80" as="geometry" />
        </mxCell>
        <mxCell id="HNm3cFTyr4UYgs1CFmEH-45" value="Принять книгу&lt;div&gt;от посетителя&lt;/div&gt;" style="ellipse;whiteSpace=wrap;html=1;" parent="HNm3cFTyr4UYgs1CFmEH-2" vertex="1">
          <mxGeometry x="540" y="330" width="120" height="80" as="geometry" />
        </mxCell>
        <mxCell id="HNm3cFTyr4UYgs1CFmEH-46" value="Добавить новый&lt;div&gt;материал в&lt;/div&gt;&lt;div&gt;каталог&lt;/div&gt;" style="ellipse;whiteSpace=wrap;html=1;" parent="HNm3cFTyr4UYgs1CFmEH-2" vertex="1">
          <mxGeometry x="680" y="580" width="120" height="80" as="geometry" />
        </mxCell>
        <mxCell id="HNm3cFTyr4UYgs1CFmEH-47" value="&lt;div&gt;&lt;span style=&quot;background-color: initial;&quot;&gt;Консультация&lt;/span&gt;&lt;br&gt;&lt;/div&gt;&lt;div&gt;посетителя&lt;/div&gt;" style="ellipse;whiteSpace=wrap;html=1;" parent="HNm3cFTyr4UYgs1CFmEH-2" vertex="1">
          <mxGeometry x="570" y="470" width="120" height="80" as="geometry" />
        </mxCell>
        <mxCell id="HNm3cFTyr4UYgs1CFmEH-1" value="Посетитель" style="shape=umlActor;verticalLabelPosition=bottom;verticalAlign=top;html=1;outlineConnect=0;" parent="1" vertex="1">
          <mxGeometry x="90" y="370" width="30" height="60" as="geometry" />
        </mxCell>
        <mxCell id="HNm3cFTyr4UYgs1CFmEH-4" value="Библиотекарь" style="shape=umlActor;verticalLabelPosition=bottom;verticalAlign=top;html=1;outlineConnect=0;" parent="1" vertex="1">
          <mxGeometry x="1080" y="370" width="30" height="60" as="geometry" />
        </mxCell>
        <mxCell id="HNm3cFTyr4UYgs1CFmEH-28" value="" style="endArrow=none;html=1;rounded=0;entryX=0;entryY=1;entryDx=0;entryDy=0;" parent="1" target="HNm3cFTyr4UYgs1CFmEH-8" edge="1">
          <mxGeometry width="50" height="50" relative="1" as="geometry">
            <mxPoint x="120" y="390" as="sourcePoint" />
            <mxPoint x="620" y="410" as="targetPoint" />
          </mxGeometry>
        </mxCell>
        <mxCell id="HNm3cFTyr4UYgs1CFmEH-29" value="" style="endArrow=none;html=1;rounded=0;exitX=1;exitY=0.3333333333333333;exitDx=0;exitDy=0;exitPerimeter=0;entryX=0;entryY=0.5;entryDx=0;entryDy=0;" parent="1" source="HNm3cFTyr4UYgs1CFmEH-1" target="HNm3cFTyr4UYgs1CFmEH-9" edge="1">
          <mxGeometry width="50" height="50" relative="1" as="geometry">
            <mxPoint x="123" y="386" as="sourcePoint" />
            <mxPoint x="290" y="160" as="targetPoint" />
          </mxGeometry>
        </mxCell>
        <mxCell id="HNm3cFTyr4UYgs1CFmEH-32" value="" style="endArrow=none;html=1;rounded=0;entryX=0;entryY=0;entryDx=0;entryDy=0;exitX=1;exitY=0.3333333333333333;exitDx=0;exitDy=0;exitPerimeter=0;" parent="1" source="HNm3cFTyr4UYgs1CFmEH-1" target="HNm3cFTyr4UYgs1CFmEH-14" edge="1">
          <mxGeometry width="50" height="50" relative="1" as="geometry">
            <mxPoint x="130" y="400" as="sourcePoint" />
            <mxPoint x="290" y="550" as="targetPoint" />
          </mxGeometry>
        </mxCell>
        <mxCell id="HNm3cFTyr4UYgs1CFmEH-33" value="" style="endArrow=none;html=1;rounded=0;entryX=0;entryY=0;entryDx=0;entryDy=0;exitX=1;exitY=0.3333333333333333;exitDx=0;exitDy=0;exitPerimeter=0;" parent="1" source="HNm3cFTyr4UYgs1CFmEH-1" target="HNm3cFTyr4UYgs1CFmEH-25" edge="1">
          <mxGeometry width="50" height="50" relative="1" as="geometry">
            <mxPoint x="130" y="400" as="sourcePoint" />
            <mxPoint x="290" y="660" as="targetPoint" />
          </mxGeometry>
        </mxCell>
        <mxCell id="HNm3cFTyr4UYgs1CFmEH-49" value="" style="endArrow=none;html=1;rounded=0;entryX=0;entryY=0.3333333333333333;entryDx=0;entryDy=0;entryPerimeter=0;exitX=1;exitY=1;exitDx=0;exitDy=0;" parent="1" source="HNm3cFTyr4UYgs1CFmEH-43" target="HNm3cFTyr4UYgs1CFmEH-4" edge="1">
          <mxGeometry width="50" height="50" relative="1" as="geometry">
            <mxPoint x="900" y="270" as="sourcePoint" />
            <mxPoint x="950" y="220" as="targetPoint" />
          </mxGeometry>
        </mxCell>
        <mxCell id="HNm3cFTyr4UYgs1CFmEH-50" value="" style="endArrow=none;html=1;rounded=0;entryX=0;entryY=0.3333333333333333;entryDx=0;entryDy=0;entryPerimeter=0;exitX=1;exitY=1;exitDx=0;exitDy=0;" parent="1" source="HNm3cFTyr4UYgs1CFmEH-44" target="HNm3cFTyr4UYgs1CFmEH-4" edge="1">
          <mxGeometry width="50" height="50" relative="1" as="geometry">
            <mxPoint x="1030" y="100" as="sourcePoint" />
            <mxPoint x="1090" y="260" as="targetPoint" />
          </mxGeometry>
        </mxCell>
        <mxCell id="HNm3cFTyr4UYgs1CFmEH-51" value="" style="endArrow=none;html=1;rounded=0;entryX=0;entryY=0.3333333333333333;entryDx=0;entryDy=0;entryPerimeter=0;exitX=1;exitY=0.5;exitDx=0;exitDy=0;" parent="1" source="HNm3cFTyr4UYgs1CFmEH-45" target="HNm3cFTyr4UYgs1CFmEH-4" edge="1">
          <mxGeometry width="50" height="50" relative="1" as="geometry">
            <mxPoint x="892" y="158" as="sourcePoint" />
            <mxPoint x="1090" y="260" as="targetPoint" />
          </mxGeometry>
        </mxCell>
        <mxCell id="HNm3cFTyr4UYgs1CFmEH-53" value="" style="endArrow=none;html=1;rounded=0;exitX=1;exitY=0;exitDx=0;exitDy=0;entryX=0;entryY=0.3333333333333333;entryDx=0;entryDy=0;entryPerimeter=0;" parent="1" source="HNm3cFTyr4UYgs1CFmEH-47" target="HNm3cFTyr4UYgs1CFmEH-4" edge="1">
          <mxGeometry width="50" height="50" relative="1" as="geometry">
            <mxPoint x="820" y="290" as="sourcePoint" />
            <mxPoint x="1080" y="250" as="targetPoint" />
          </mxGeometry>
        </mxCell>
        <mxCell id="HNm3cFTyr4UYgs1CFmEH-54" value="" style="endArrow=none;html=1;rounded=0;exitX=1;exitY=0;exitDx=0;exitDy=0;entryX=0;entryY=0.3333333333333333;entryDx=0;entryDy=0;entryPerimeter=0;" parent="1" source="HNm3cFTyr4UYgs1CFmEH-46" target="HNm3cFTyr4UYgs1CFmEH-4" edge="1">
          <mxGeometry width="50" height="50" relative="1" as="geometry">
            <mxPoint x="892" y="322" as="sourcePoint" />
            <mxPoint x="1090" y="260" as="targetPoint" />
          </mxGeometry>
        </mxCell>
      </root>
    </mxGraphModel>
  </diagram>
</mxfile>
